<svg width="32" height="32" viewBox="0 0 32 32" fill="none" xmlns="http://www.w3.org/2000/svg">
<path d="M32 16C32 7.16344 24.8366 0 16 0C7.16344 0 0 7.16344 0 16C0 24.8366 7.16344 32 16 32C24.8366 32 32 24.8366 32 16Z" fill="#FF0000"/>
<path d="M15.9941 8.45117C15.9941 8.45117 9.2508 8.45118 7.55831 8.89096C6.65209 9.14417 5.90589 9.89038 5.65268 10.8099C5.2129 12.5024 5.21289 16.0074 5.21289 16.0074C5.21289 16.0074 5.2129 19.5257 5.65268 21.1916C5.90589 22.1111 6.63876 22.844 7.55831 23.0972C9.26412 23.5503 15.9941 23.5503 15.9941 23.5503C15.9941 23.5503 22.7509 23.5503 24.4433 23.1105C25.3629 22.8573 26.0957 22.1378 26.3356 21.2049C26.7887 19.5257 26.7887 16.0208 26.7887 16.0208C26.7887 16.0208 26.802 12.5024 26.3356 10.8099C26.0957 9.89038 25.3629 9.15751 24.4433 8.91763C22.7509 8.45119 15.9941 8.45117 15.9941 8.45117ZM13.8485 12.7691L19.4591 16.0074L13.8485 19.2324V12.7691Z" fill="white"/>
</svg>
