<svg width="25" height="25" viewBox="0 0 25 25" fill="none" xmlns="http://www.w3.org/2000/svg">
<path d="M6.90857 2.56839C8.61256 1.54266 10.5615 1.00062 12.5478 1C14.2004 0.999021 15.8319 1.37291 17.3207 2.0938C18.8095 2.81469 20.1172 3.86399 21.1463 5.16347C22.1754 6.46296 22.8993 7.97911 23.2642 9.59892C23.629 11.2187 23.6254 12.9004 23.2535 14.5186C22.8816 16.1368 22.1511 17.6497 21.1164 18.9447C20.0816 20.2397 18.7694 21.2832 17.2775 21.9976C15.7856 22.7119 14.1525 23.0787 12.4999 23.0704C11.1206 23.0636 9.75743 22.7957 8.48103 22.2833L1.81972 23.398C1.44794 23.4602 1.14364 23.1043 1.26286 22.7467L3.01175 17.5009C2.1565 15.9934 1.66527 14.301 1.58275 12.5605C1.48821 10.5666 1.9336 8.58433 2.87147 6.82473C3.80935 5.06513 5.20458 3.59412 6.90857 2.56839Z" stroke="#171A1E" stroke-width="1.5" stroke-linecap="round" stroke-linejoin="round"/>
</svg>
