<svg width="48" height="48" viewBox="0 0 48 48" fill="none" xmlns="http://www.w3.org/2000/svg">
<path d="M23.9989 45.4279C37.7132 45.4279 45.4275 37.7137 45.4275 23.9994C45.4275 10.2851 37.7132 2.5708 23.9989 2.5708C10.2846 2.5708 2.57031 10.2851 2.57031 23.9994C2.57031 37.7137 10.2846 45.4279 23.9989 45.4279Z" fill="#E48616"/>
<path d="M15.4297 32.5721L32.5725 15.4292" stroke="white" stroke-width="1.5" stroke-linecap="round" stroke-linejoin="round"/>
<path d="M17.144 18.8578C18.0907 18.8578 18.8583 18.0903 18.8583 17.1435C18.8583 16.1967 18.0907 15.4292 17.144 15.4292C16.1972 15.4292 15.4297 16.1967 15.4297 17.1435C15.4297 18.0903 16.1972 18.8578 17.144 18.8578Z" fill="white" stroke="white" stroke-width="1.5" stroke-linecap="round" stroke-linejoin="round"/>
<path d="M30.8569 32.5707C31.8036 32.5707 32.5711 31.8031 32.5711 30.8564C32.5711 29.9096 31.8036 29.1421 30.8569 29.1421C29.9101 29.1421 29.1426 29.9096 29.1426 30.8564C29.1426 31.8031 29.9101 32.5707 30.8569 32.5707Z" fill="white" stroke="white" stroke-width="1.5" stroke-linecap="round" stroke-linejoin="round"/>
</svg>
