<svg width="24" height="24" viewBox="0 0 24 24" fill="none" xmlns="http://www.w3.org/2000/svg">
<path d="M1.65035 18.9941C1.82482 20.3965 2.95461 21.5025 4.36034 21.6483C6.83447 21.9049 9.40731 22.1982 12.0483 22.1982C14.6894 22.1982 17.2622 21.9049 19.7363 21.6483C21.1421 21.5025 22.2719 20.3965 22.4463 18.9941C22.7139 16.8433 22.999 14.611 22.999 12.3216C22.999 10.0323 22.7139 7.79995 22.4463 5.64918C22.2719 4.24673 21.1421 3.14074 19.7363 2.99496C17.2622 2.73837 14.6894 2.4451 12.0483 2.4451C9.40731 2.4451 6.83447 2.73837 4.36034 2.99496C2.95461 3.14074 1.82482 4.24673 1.65035 5.64918C1.3828 7.79995 1.09766 10.0323 1.09766 12.3216C1.09766 14.611 1.3828 16.8433 1.65035 18.9941Z" stroke="currentColor" stroke-width="1.5" stroke-linejoin="round"/>
<path d="M1.64062 5.67121L10.2357 12.4481C11.2991 13.2866 12.7987 13.2866 13.8622 12.4481L22.4572 5.67121" stroke="currentColor" stroke-width="1.5" stroke-linejoin="round"/>
</svg>
