<svg width="48" height="48" viewBox="0 0 48 48" fill="none" xmlns="http://www.w3.org/2000/svg">
<path d="M10.374 24.001C10.679 18.058 11.8147 10.3065 14.6899 4.61375C15.1299 3.74269 15.9722 3.16025 16.941 3.04293C18.7966 2.81822 21.9413 2.56982 26.0989 2.56982C29.1086 2.56982 31.7653 2.79392 33.8234 3.06443C35.8978 3.3371 36.984 5.49751 36.1562 7.41909L32.8924 14.995C35.7512 15.101 37.9817 15.3268 40.0555 15.7495C41.96 16.1376 42.9053 18.1705 41.9313 19.8525C38.2983 26.1262 29.7235 36.4603 17.3292 45.427C17.3292 38.724 18.5063 34.1109 20.5689 27.427H13.7118C11.8182 27.427 10.2769 25.8921 10.374 24.001Z" fill="#E48616" stroke="#E48616" stroke-width="2.25" stroke-linecap="round" stroke-linejoin="round"/>
</svg>
