<svg width="24" height="24" viewBox="0 0 24 24" fill="none" xmlns="http://www.w3.org/2000/svg">
<path d="M11.9994 22.7139C17.9168 22.7139 22.7137 17.917 22.7137 11.9996C22.7137 6.08231 17.9168 1.28536 11.9994 1.28536C6.08211 1.28536 1.28516 6.08231 1.28516 11.9996C1.28516 17.917 6.08211 22.7139 11.9994 22.7139Z" stroke="currentColor" stroke-width="1.5" stroke-linecap="round" stroke-linejoin="round"/>
<path d="M12 12.067C13.8143 12.067 15.2852 10.5962 15.2852 8.78187C15.2852 6.96753 13.8143 5.49671 12 5.49671C10.1857 5.49671 8.71484 6.96753 8.71484 8.78187C8.71484 10.5962 10.1857 12.067 12 12.067Z" stroke="currentColor" stroke-width="1.5" stroke-linecap="round" stroke-linejoin="round"/>
<path d="M18.3508 20.6314C17.9969 19.2987 17.2314 18.1075 16.1586 17.2306C14.9852 16.2715 13.5162 15.7475 12.0006 15.7475C10.485 15.7475 9.01603 16.2715 7.84255 17.2306C6.7698 18.1075 6.0043 19.2987 5.65039 20.6314" stroke="currentColor" stroke-width="1.5" stroke-linecap="round" stroke-linejoin="round"/>
</svg>
