<svg width="24" height="24" viewBox="0 0 24 24" fill="none" xmlns="http://www.w3.org/2000/svg">
<path d="M15.5558 7.08357L15.7299 7.43786L16.1206 7.49482L22.6511 8.44705L22.6545 8.44753C22.9148 8.48428 23.1333 8.66679 23.2157 8.91205C23.2961 9.15583 23.2333 9.42338 23.0432 9.61279L18.3108 14.2003L18.0273 14.4751L18.0934 14.8643L19.2112 21.4482C19.2547 21.706 19.1482 21.965 18.9337 22.1155L18.9308 22.1175C18.71 22.2741 18.4172 22.2927 18.1825 22.1691L12.3477 19.0925L11.9977 18.908L11.6478 19.0926L5.82032 22.1677C5.81992 22.1679 5.81952 22.1681 5.81912 22.1683C5.57748 22.2938 5.28422 22.273 5.06484 22.1175C4.84864 21.9643 4.74371 21.704 4.78795 21.4543L4.78884 21.449L5.9068 14.8643L5.9729 14.475L5.68935 14.2002L0.955924 9.61259C0.766899 9.42453 0.703585 9.15692 0.784574 8.91053C0.865631 8.66702 1.08159 8.48467 1.34588 8.44764L1.34589 8.44765L1.3501 8.44703L7.87517 7.49481L8.26548 7.43785L8.43972 7.08398L11.3664 1.14021L11.3664 1.14022L11.3679 1.13716C11.4809 0.905003 11.7252 0.75 11.9978 0.75C12.2764 0.75 12.5199 0.906181 12.6323 1.13717L12.6336 1.1398L15.5558 7.08357Z" stroke="black" stroke-width="1.5"/>
</svg>
