<svg width="26" height="26" viewBox="0 0 24 24" fill="none" xmlns="http://www.w3.org/2000/svg">
    <path d="M16.2288 6.75267L22.7593 7.7049C23.3001 7.78125 23.7546 8.15855 23.9273 8.67509C24.1 9.19612 23.9591 9.76206 23.5683 10.1483L18.8328 14.7388L19.9508 21.3235C20.0417 21.8625 19.819 22.4105 19.3646 22.7294C18.9146 23.0483 18.3193 23.0887 17.833 22.8327L11.9978 19.7559L6.16718 22.8327C5.67637 23.0887 5.08104 23.0483 4.63113 22.7294C4.18122 22.4105 3.95399 21.8625 4.04942 21.3235L5.16738 14.7388L0.431053 10.1483C0.0397671 9.76206 -0.0992962 9.19612 0.0724877 8.67509C0.243817 8.15855 0.696909 7.78125 1.2418 7.7049L7.76686 6.75267L10.6936 0.808902C10.9344 0.314104 11.4434 0 11.9978 0C12.5568 0 13.0658 0.314104 13.3067 0.808902L16.2288 6.75267Z"
          fill="currentColor"/>
</svg>
