<svg width="125" height="36" viewBox="0 0 125 36" fill="none" xmlns="http://www.w3.org/2000/svg">
<path d="M23.5116 2L15.7911 15.7911L2 20.5554L23.5116 2Z" fill="#D84900" stroke="#D84900" stroke-width="3.90769" stroke-linecap="round" stroke-linejoin="round"/>
<path d="M34.0953 25.8838L24.2633 2L16.543 15.8538L34.0953 25.8838Z" fill="white" stroke="white" stroke-width="3.90769" stroke-linecap="round" stroke-linejoin="round"/>
<path d="M24.2589 33.1678L2 20.4859L16.3414 15.8828L34.5973 25.9681L24.2589 33.1678Z" fill="#EC5D12" stroke="#EC5D12" stroke-width="3.90769" stroke-linecap="round" stroke-linejoin="round"/>
<path d="M46.5972 7.5957H48.618V20.5749H55.493V22.5957H46.5972V7.5957Z" fill="#171A1E"/>
<path d="M59.4969 7.49154V9.51237H57.4761V7.49154H59.4969ZM59.4969 11.3457V22.5957H57.4761V11.3457H59.4969Z" fill="#171A1E"/>
<path d="M65.8485 18.1374C65.8485 18.7346 65.8554 19.1651 65.8693 19.429C65.8971 19.679 65.9735 19.9013 66.0985 20.0957C66.2235 20.3179 66.3971 20.5054 66.6193 20.6582C66.8554 20.7971 67.1054 20.8804 67.3693 20.9082C67.4943 20.9221 67.6887 20.929 67.9526 20.929C68.3554 20.929 68.779 20.8943 69.2235 20.8249V22.5957C68.7651 22.7207 68.2235 22.7832 67.5985 22.7832C67.1957 22.7832 66.8207 22.7485 66.4735 22.679C65.404 22.429 64.6749 21.9151 64.286 21.1374C64.0915 20.7624 63.9665 20.3596 63.911 19.929C63.8554 19.4846 63.8276 18.929 63.8276 18.2624V12.9915H61.3693V11.3457H63.8276V8.2207H65.8485V11.3457H69.2235V12.9915H65.8485V18.1374Z" fill="#171A1E"/>
<path d="M79.9917 12.0957C80.6861 12.6513 81.1514 13.3249 81.3875 14.1165C81.6236 14.9082 81.7348 15.8804 81.7209 17.0332V22.5957H79.6792V17.0332C79.6792 16.2276 79.6028 15.5471 79.45 14.9915C79.2973 14.4221 79.0056 13.9638 78.575 13.6165C78.0473 13.186 77.3736 12.9846 76.5542 13.0124C75.8736 13.054 75.3042 13.2624 74.8459 13.6374C74.332 14.054 74.0125 14.6374 73.8875 15.3874C73.8181 15.679 73.7764 16.0263 73.7625 16.429C73.7486 16.8318 73.7417 17.2415 73.7417 17.6582V22.5957H71.7209V7.5957H73.5125V12.4707C73.5125 12.4707 73.5889 12.3943 73.7417 12.2415C74.1723 11.8526 74.6723 11.561 75.2417 11.3665C75.825 11.1721 76.4153 11.0749 77.0125 11.0749C77.5542 11.0749 78.082 11.1651 78.5959 11.3457C79.1236 11.5124 79.5889 11.7624 79.9917 12.0957Z" fill="#171A1E"/>
<path d="M89.0542 22.9082C88.2209 22.9082 87.4431 22.7485 86.7209 22.429C85.9986 22.1096 85.3945 21.6513 84.9084 21.054C84.0334 19.9707 83.5959 18.6096 83.5959 16.9707C83.5959 15.3318 84.0334 13.9638 84.9084 12.8665C85.3806 12.2832 85.9848 11.8318 86.7209 11.5124C87.457 11.1929 88.2348 11.0332 89.0542 11.0332C89.8875 11.0332 90.6653 11.1929 91.3875 11.5124C92.1236 11.8179 92.7348 12.2693 93.2209 12.8665C94.0959 13.9638 94.5334 15.3318 94.5334 16.9707C94.5334 18.5818 94.0959 19.9429 93.2209 21.054C92.7209 21.6651 92.1098 22.1304 91.3875 22.4499C90.6792 22.7554 89.9014 22.9082 89.0542 22.9082ZM91.6167 19.8249C92.1306 19.1443 92.3875 18.1929 92.3875 16.9707C92.3875 15.7346 92.1306 14.7763 91.6167 14.0957C91.3389 13.7207 90.9709 13.436 90.5125 13.2415C90.0681 13.0471 89.582 12.9499 89.0542 12.9499C88.5264 12.9499 88.0403 13.0471 87.5959 13.2415C87.1514 13.436 86.7903 13.7207 86.5125 14.0957C85.9986 14.7763 85.7417 15.7346 85.7417 16.9707C85.7417 18.1929 85.9986 19.1443 86.5125 19.8249C86.7903 20.1999 87.1514 20.4915 87.5959 20.6999C88.0403 20.8943 88.5264 20.9915 89.0542 20.9915C89.582 20.9915 90.0681 20.8943 90.5125 20.6999C90.957 20.4915 91.325 20.1999 91.6167 19.8249Z" fill="#171A1E"/>
<path d="M98.8394 22.5957H96.8185V7.2832H98.8394V22.5957Z" fill="#171A1E"/>
<path d="M106.593 22.9082C105.76 22.9082 104.982 22.7485 104.26 22.429C103.538 22.1096 102.934 21.6513 102.447 21.054C101.572 19.9707 101.135 18.6096 101.135 16.9707C101.135 15.3318 101.572 13.9638 102.447 12.8665C102.92 12.2832 103.524 11.8318 104.26 11.5124C104.996 11.1929 105.774 11.0332 106.593 11.0332C107.427 11.0332 108.204 11.1929 108.927 11.5124C109.663 11.8179 110.274 12.2693 110.76 12.8665C111.635 13.9638 112.072 15.3318 112.072 16.9707C112.072 18.5818 111.635 19.9429 110.76 21.054C110.26 21.6651 109.649 22.1304 108.927 22.4499C108.218 22.7554 107.44 22.9082 106.593 22.9082ZM109.156 19.8249C109.67 19.1443 109.927 18.1929 109.927 16.9707C109.927 15.7346 109.67 14.7763 109.156 14.0957C108.878 13.7207 108.51 13.436 108.052 13.2415C107.607 13.0471 107.121 12.9499 106.593 12.9499C106.065 12.9499 105.579 13.0471 105.135 13.2415C104.69 13.436 104.329 13.7207 104.052 14.0957C103.538 14.7763 103.281 15.7346 103.281 16.9707C103.281 18.1929 103.538 19.1443 104.052 19.8249C104.329 20.1999 104.69 20.4915 105.135 20.6999C105.579 20.8943 106.065 20.9915 106.593 20.9915C107.121 20.9915 107.607 20.8943 108.052 20.6999C108.496 20.4915 108.864 20.1999 109.156 19.8249Z" fill="#171A1E"/>
<path d="M124.316 11.3457V22.7832C124.316 23.7693 124.17 24.5888 123.878 25.2415C123.601 25.9082 123.135 26.4638 122.483 26.9082C121.524 27.561 120.385 27.8874 119.066 27.8874C118.51 27.8874 117.962 27.7971 117.42 27.6165C116.878 27.436 116.42 27.1721 116.045 26.8249C115.42 26.4638 114.948 26.0054 114.628 25.4499L116.483 24.5332C116.608 24.7693 116.774 24.9707 116.983 25.1374C117.233 25.4013 117.545 25.6026 117.92 25.7415C118.309 25.8943 118.698 25.9707 119.087 25.9707C119.531 25.9707 119.955 25.9082 120.358 25.7832C120.774 25.6582 121.121 25.4776 121.399 25.2415C121.76 24.9499 122.003 24.6235 122.128 24.2624C122.253 23.9013 122.309 23.4013 122.295 22.7624V21.6582C121.865 22.0749 121.358 22.3874 120.774 22.5957C120.191 22.804 119.559 22.9082 118.878 22.9082C118.115 22.9082 117.392 22.7554 116.712 22.4499C116.031 22.1304 115.462 21.679 115.003 21.0957C114.156 20.0401 113.733 18.6651 113.733 16.9707C113.733 16.179 113.837 15.429 114.045 14.7207C114.253 14.0124 114.573 13.3804 115.003 12.8249C115.462 12.2415 116.031 11.7971 116.712 11.4915C117.392 11.186 118.121 11.0332 118.899 11.0332C119.608 11.0332 120.281 11.1651 120.92 11.429C121.559 11.679 122.101 12.0401 122.545 12.5124V11.3457H124.316ZM119.149 21.0749C119.649 21.0749 120.115 20.9846 120.545 20.804C120.99 20.6096 121.365 20.3388 121.67 19.9915C121.962 19.6304 122.177 19.186 122.316 18.6582C122.469 18.1304 122.545 17.5679 122.545 16.9707C122.545 15.6513 122.253 14.6443 121.67 13.9499C121.378 13.5888 121.017 13.3179 120.587 13.1374C120.17 12.9568 119.712 12.8665 119.212 12.8665C118.67 12.8665 118.17 12.9707 117.712 13.179C117.267 13.3735 116.906 13.6721 116.628 14.0749C116.128 14.7415 115.878 15.7068 115.878 16.9707C115.878 18.2346 116.121 19.1929 116.608 19.8457C116.885 20.2485 117.246 20.554 117.691 20.7624C118.149 20.9707 118.635 21.0749 119.149 21.0749Z" fill="#171A1E"/>
</svg>
