<svg width="142" height="44" viewBox="0 0 142 44" fill="none" xmlns="http://www.w3.org/2000/svg">
<path d="M28.8281 40.609L2.16797 25.4195L19.3451 19.9062L41.2107 31.9857L28.8281 40.609Z" stroke="#171A1E" stroke-width="1.61844" stroke-linecap="round" stroke-linejoin="round"/>
<path d="M28.834 3.25391L19.3847 19.8617L2.16797 25.3068L28.834 3.25391Z" stroke="#171A1E" stroke-width="1.61844" stroke-linecap="round" stroke-linejoin="round"/>
<path d="M28.834 3.47852L41.2106 31.8323" stroke="#171A1E" stroke-width="1.61844" stroke-linecap="round" stroke-linejoin="round"/>
<path d="M55.8307 24.7292H64.9178V27.1122H53.1406V11.9247H55.8307V24.7292Z" fill="#171A1E"/>
<path d="M66.9937 16.4788H69.419V27.1122H66.9937V16.4788ZM67.1631 13.8735C66.9019 13.6546 66.7713 13.351 66.7713 12.9626C66.7713 12.5884 66.9019 12.2848 67.1631 12.0518C67.4314 11.8259 67.7809 11.7129 68.2116 11.7129C68.6353 11.7129 68.9812 11.8259 69.2495 12.0518C69.5037 12.2848 69.6308 12.5884 69.6308 12.9626C69.6308 13.3439 69.5037 13.6475 69.2495 13.8735C68.9883 14.1065 68.6423 14.223 68.2116 14.223C67.7809 14.223 67.4314 14.1065 67.1631 13.8735Z" fill="#171A1E"/>
<path d="M73.3377 23.1406V18.5653H71.5796V17.0296L74.185 14.0959H75.763V16.4788H79.4805V18.5653H75.763V22.8123C75.763 24.3374 76.5326 25.107 78.0719 25.1211C78.3896 25.1211 78.6932 25.0858 78.9827 25.0152C79.2792 24.9446 79.4946 24.8634 79.6287 24.7716L79.7982 24.6657V26.9216C79.2545 27.1969 78.5696 27.3311 77.7435 27.324C74.8063 27.324 73.3377 25.9296 73.3377 23.1406Z" fill="#171A1E"/>
<path d="M93.3653 27.1122H90.9399V21.732C90.9399 20.6376 90.6504 19.8221 90.0715 19.2855C89.4925 18.7489 88.7264 18.4805 87.7732 18.4805C86.7565 18.4805 85.9798 18.7806 85.4432 19.3808C84.8995 19.988 84.6277 20.7717 84.6277 21.732V27.1122H82.2024V11.9247H84.6277V18.1946H84.776C84.8536 18.0251 85.0266 17.8027 85.2949 17.5274C85.4714 17.3367 85.708 17.139 86.0045 16.9343C86.3011 16.7507 86.6894 16.5953 87.1695 16.4683C87.6497 16.3341 88.1545 16.267 88.684 16.267C90.0538 16.267 91.1765 16.6695 92.052 17.4744C92.9275 18.2864 93.3653 19.4973 93.3653 21.1071V27.1122Z" fill="#171A1E"/>
<path d="M102.071 27.324C100.313 27.324 98.8761 26.8298 97.7605 25.8413C96.645 24.8528 96.0872 23.5042 96.0872 21.7955C96.0872 20.0939 96.645 18.7453 97.7605 17.7498C98.8761 16.7613 100.313 16.267 102.071 16.267C103.836 16.267 105.277 16.7613 106.392 17.7498C107.501 18.7453 108.055 20.0939 108.055 21.7955C108.055 23.5113 107.501 24.8599 106.392 25.8413C105.277 26.8298 103.836 27.324 102.071 27.324ZM104.592 24.1997C105.227 23.5854 105.545 22.784 105.545 21.7955C105.545 20.8141 105.227 20.0162 104.592 19.402C103.942 18.7877 103.102 18.4805 102.071 18.4805C101.026 18.4805 100.186 18.7877 99.5504 19.402C98.915 20.0162 98.5972 20.8141 98.5972 21.7955C98.5972 22.784 98.915 23.5854 99.5504 24.1997C100.186 24.814 101.026 25.1211 102.071 25.1211C103.102 25.1211 103.942 24.814 104.592 24.1997Z" fill="#171A1E"/>
<path d="M110.883 11.9247H113.308V27.1122H110.883V11.9247Z" fill="#171A1E"/>
<path d="M122.109 27.324C120.351 27.324 118.914 26.8298 117.799 25.8413C116.683 24.8528 116.125 23.5042 116.125 21.7955C116.125 20.0939 116.683 18.7453 117.799 17.7498C118.914 16.7613 120.351 16.267 122.109 16.267C123.874 16.267 125.315 16.7613 126.43 17.7498C127.539 18.7453 128.093 20.0939 128.093 21.7955C128.093 23.5113 127.539 24.8599 126.43 25.8413C125.315 26.8298 123.874 27.324 122.109 27.324ZM124.63 24.1997C125.265 23.5854 125.583 22.784 125.583 21.7955C125.583 20.8141 125.265 20.0162 124.63 19.402C123.98 18.7877 123.14 18.4805 122.109 18.4805C121.064 18.4805 120.224 18.7877 119.589 19.402C118.953 20.0162 118.635 20.8141 118.635 21.7955C118.635 22.784 118.953 23.5854 119.589 24.1997C120.224 24.814 121.064 25.1211 122.109 25.1211C123.14 25.1211 123.98 24.814 124.63 24.1997Z" fill="#171A1E"/>
<path d="M130.635 19.8044C130.635 18.6747 131.09 17.8027 132.001 17.1884C132.912 16.5742 134.112 16.267 135.602 16.267H141.999V18.2158H140.008V18.2581C140.382 18.5688 140.569 19.1054 140.569 19.868C140.569 20.9836 140.114 21.8485 139.203 22.4628C138.292 23.077 137.092 23.3842 135.602 23.3842C133.894 23.3842 133.039 23.6807 133.039 24.2738C133.039 24.8669 133.894 25.1635 135.602 25.1635C137.353 25.1635 138.758 25.4247 139.817 25.9472C140.855 26.4768 141.374 27.2993 141.374 28.4149C141.374 29.5305 140.855 30.3531 139.817 30.8826C138.758 31.4051 137.353 31.6664 135.602 31.6664C133.844 31.6664 132.443 31.4051 131.398 30.8826C130.353 30.3531 129.83 29.5305 129.83 28.4149C129.83 28.0478 129.897 27.7018 130.031 27.377C130.173 27.0522 130.349 26.7874 130.561 26.5827C130.956 26.2014 131.327 25.9578 131.673 25.8519L131.895 25.7672V25.7036C131.691 25.633 131.486 25.4635 131.281 25.1952C131.055 24.9269 130.942 24.6198 130.942 24.2738C130.942 23.9208 131.052 23.6101 131.27 23.3418C131.482 23.0665 131.705 22.8758 131.938 22.7699L132.266 22.6428V22.5793C132.146 22.5298 131.962 22.4027 131.715 22.198C131.518 22.0356 131.355 21.8661 131.228 21.6896C130.868 21.2236 130.67 20.5952 130.635 19.8044ZM135.602 29.7176C137.77 29.7176 138.854 29.2834 138.854 28.4149C138.854 27.5464 137.77 27.1122 135.602 27.1122C133.435 27.1122 132.351 27.5464 132.351 28.4149C132.351 29.2834 133.435 29.7176 135.602 29.7176ZM137.403 18.6606C136.965 18.364 136.365 18.2158 135.602 18.2158C134.84 18.2158 134.24 18.364 133.802 18.6606C133.371 18.9571 133.156 19.3419 133.156 19.815C133.156 20.2951 133.371 20.6835 133.802 20.98C134.24 21.2766 134.84 21.4248 135.602 21.4248C136.365 21.4248 136.965 21.2766 137.403 20.98C137.833 20.6835 138.049 20.2951 138.049 19.815C138.049 19.3419 137.833 18.9571 137.403 18.6606Z" fill="#171A1E"/>
</svg>
